<svg width="23" height="23" viewBox="0 0 23 23" fill="none" xmlns="http://www.w3.org/2000/svg">
<path id="Vector" d="M9.5 22.5V14.9067H13.5V22.5V22.75H13.75H22H22.25V22.5V9.89272V9.78272L22.1689 9.7084L21.6845 9.26451L21.5156 9.44882L21.6845 9.2645L12.3757 0.734855C12.0255 0.414019 11.5646 0.240541 11.0893 0.250398C10.6141 0.260256 10.1608 0.452696 9.82433 0.787799L1.26295 9.31477L1.26294 9.31478L0.82359 9.75232L0.75 9.8256V9.92946V22.5V22.75H1H9.25H9.5V22.5ZM2.75 10.6527L11.1353 2.36441L20.25 10.6588V20.756H15.5V14.6567C15.5 14.1938 15.3154 13.7501 14.9871 13.4232C14.6588 13.0962 14.2138 12.9127 13.75 12.9127H9.25C8.7862 12.9127 8.34119 13.0962 8.01292 13.4232C7.68462 13.7501 7.5 14.1938 7.5 14.6567V20.756H2.75V10.6527Z" fill="black" stroke="black" stroke-width="0.5"/>
</svg>
