<svg width="24" height="22" viewBox="0 0 24 22" fill="none" xmlns="http://www.w3.org/2000/svg">
<path id="Vector" d="M13.2075 1.46781C12.765 1.76056 12.3602 2.10616 12.0006 2.49702C11.6426 2.10428 11.2369 1.75833 10.793 1.46745L10.7927 1.46722C9.67746 0.741049 8.37893 0.353642 7.05167 0.35125C6.24231 0.33476 5.43787 0.481602 4.68554 0.783133C3.93277 1.08484 3.24738 1.53532 2.6696 2.10803C2.09182 2.68075 1.63329 3.36416 1.32085 4.1181C1.00841 4.87203 0.848343 5.68134 0.850008 6.49851L0.850021 6.49975C0.862336 7.6956 1.12761 8.87339 1.62683 9.95629C3.13316 13.3238 6.52881 16.127 9.49859 18.5786L9.53401 18.6078L9.57559 18.6421H9.58642C9.6328 18.6806 9.67903 18.7189 9.72511 18.757C10.4904 19.3911 11.2121 19.9891 11.8581 20.5654L11.8876 20.8043L12.1015 20.6114C12.8081 19.9744 13.6062 19.3158 14.4559 18.6169L14.4658 18.6088L14.467 18.6079L14.4823 18.5952C17.457 16.1441 20.8634 13.337 22.3732 9.96184C22.8737 8.87685 23.1386 7.69638 23.15 6.49964L23.15 6.49851C23.1517 5.68134 22.9916 4.87203 22.6792 4.1181C22.3667 3.36416 21.9082 2.68075 21.3304 2.10803C20.7526 1.53532 20.0672 1.08484 19.3145 0.783133C18.5621 0.481604 17.7577 0.334762 16.9483 0.351249C15.6214 0.353478 14.3231 0.740916 13.2084 1.46724L13.2075 1.46781ZM7.04811 2.87237L7.05129 2.87234C7.64884 2.86721 8.24075 2.9898 8.78812 3.23211C9.33503 3.47421 9.82516 3.83036 10.2263 4.27729L11.8862 6.2084L12 6.34074L12.1138 6.2084L13.7737 4.27728C14.1748 3.83036 14.665 3.47421 15.2119 3.23211C15.7593 2.9898 16.3512 2.86721 16.9487 2.87236L16.9515 2.87234C17.9373 2.86218 18.8873 3.24566 19.5947 3.93968C19.9309 4.273 20.1976 4.67103 20.3791 5.1103C20.5605 5.54946 20.653 6.02089 20.6511 6.49679C20.6403 7.33881 20.4495 8.17011 20.0938 8.93221C19.3961 10.3581 18.4546 11.6482 17.3126 12.7434L17.3125 12.7433L17.3091 12.7468C16.2248 13.857 14.9748 14.9268 13.8907 15.8303C13.5907 16.0799 13.2851 16.3318 12.9761 16.5861L12.9756 16.5865L12.7843 16.7452L12.7842 16.7453L12.0848 17.3249H12.084L12.0443 17.3539L12.0322 17.3628L12.0319 17.3624L12.0228 17.3703L12.0169 17.3755L12.0088 17.382C11.7421 17.1588 11.4691 16.9332 11.2045 16.715C11.2044 16.715 11.2044 16.715 11.2044 16.715L11.012 16.5562L11.0119 16.5562C10.7061 16.3041 10.4005 16.0522 10.1005 15.8026C9.01657 14.8991 7.76746 13.8281 6.68295 12.7233L6.683 12.7232L6.67977 12.7201C5.53803 11.6244 4.59656 10.334 3.89866 8.90805C3.54939 8.1525 3.36187 7.32994 3.35 6.49661C3.34671 6.01927 3.43845 5.54617 3.61976 5.1054C3.80105 4.66466 4.06817 4.26529 4.40518 3.93096C5.11387 3.24017 6.06367 2.85989 7.04811 2.87237Z" fill="black" stroke="black" stroke-width="0.3"/>
</svg>
