<svg width="24" height="23" viewBox="0 0 24 23" fill="none" xmlns="http://www.w3.org/2000/svg">
<path id="image 4 (Traced)" d="M1.02661 5.09004L1.02661 5.09004C1.72922 2.66395 3.74729 0.816429 6.15263 0.407316L1.02661 5.09004ZM1.02661 5.09004L0.85597 5.67933L0.850051 5.69977M1.02661 5.09004L0.850051 5.69977M0.850051 5.69977V5.72105M0.850051 5.69977V5.72105M0.850051 5.72105V11.4166M0.850051 5.72105V11.4166M0.850051 11.4166C0.850051 11.597 0.850036 11.7721 0.850022 11.9424M0.850051 11.4166L0.850022 11.9424M0.850022 11.9424C0.849782 14.8354 0.84966 16.2933 0.923211 17.1703M0.850022 11.9424L0.923211 17.1703M0.923211 17.1703C0.962441 17.6381 1.02312 17.9489 1.11866 18.2281M0.923211 17.1703L1.11866 18.2281M1.11866 18.2281C1.20269 18.4738 1.3129 18.6918 1.44981 18.9626M1.11866 18.2281L1.44981 18.9626M1.44981 18.9626C1.46676 18.9961 1.48411 19.0304 1.50187 19.0657M1.44981 18.9626L1.50187 19.0657M1.50187 19.0657C2.18011 20.4132 3.10621 21.3327 4.43392 21.9744M1.50187 19.0657L4.43392 21.9744M4.43392 21.9744C4.49628 22.0046 4.55547 22.0335 4.6122 22.0612M4.43392 21.9744L4.6122 22.0612M4.6122 22.0612C4.85971 22.1822 5.06058 22.2804 5.27474 22.3564M4.6122 22.0612L5.27474 22.3564M5.27474 22.3564C5.54297 22.4516 5.83025 22.5118 6.26358 22.5512M5.27474 22.3564L6.26358 22.5512M6.26358 22.5512C7.03986 22.6218 8.31033 22.6272 10.8295 22.638M6.26358 22.5512L10.8295 22.638M10.8295 22.638C11.0951 22.6391 11.3746 22.6403 11.6689 22.6416M10.8295 22.638L11.6689 22.6416M11.6689 22.6416C14.6523 22.6552 16.2231 22.658 17.1775 22.6051M11.6689 22.6416L17.1775 22.6051M17.1775 22.6051C18.1429 22.5515 18.4913 22.4398 19.0271 22.2258M17.1775 22.6051L19.0271 22.2258M19.0271 22.2258C20.692 21.5611 22.0527 20.2022 22.712 18.5451M19.0271 22.2258L22.712 18.5451M22.712 18.5451C22.8159 18.2838 22.8979 18.0661 22.9601 17.7978M22.712 18.5451L22.9601 17.7978M22.9601 17.7978C23.0222 17.5299 23.0634 17.2163 23.0912 16.7606M22.9601 17.7978L23.0912 16.7606M23.0912 16.7606C23.1467 15.8523 23.15 14.3567 23.15 11.4911M23.0912 16.7606L23.15 11.4911M23.15 11.4911C23.15 9.24875 23.1456 7.90658 23.1287 7.05867M23.15 11.4911L23.1287 7.05867M23.1287 7.05867C23.1119 6.21246 23.0825 5.84962 23.03 5.57116M23.1287 7.05867L23.03 5.57116M23.03 5.57116C22.5704 3.13435 20.8118 1.2513 18.3153 0.507181M23.03 5.57116L18.3153 0.507181M18.3153 0.507181L18.3153 0.507182M18.3153 0.507181L18.3153 0.507182M18.3153 0.507182C18.089 0.439746 17.8423 0.406291 17.0218 0.386143M18.3153 0.507182L17.0218 0.386143M17.0218 0.386143C16.1984 0.365925 14.7818 0.359209 12.2052 0.351952M17.0218 0.386143L12.2052 0.351952M12.2052 0.351952C10.6072 0.347447 9.15752 0.350928 8.0783 0.360455M12.2052 0.351952L8.0783 0.360455M8.0783 0.360455C7.53876 0.365218 7.09135 0.371496 6.7641 0.379057M8.0783 0.360455L6.7641 0.379057M6.7641 0.379057C6.60055 0.382836 6.46636 0.386949 6.36541 0.391387M6.7641 0.379057L6.36541 0.391387M6.36541 0.391387C6.2687 0.395639 6.19265 0.400505 6.15267 0.407309L6.36541 0.391387ZM15.2301 5.5189C15.316 5.67475 15.3864 5.80494 15.4379 5.90269C15.4361 5.90273 15.4344 5.90277 15.4327 5.90281C15.2895 5.90612 15.0862 5.90886 14.8423 5.91101C14.3548 5.91532 13.7074 5.9173 13.0598 5.917C12.4122 5.91671 11.7648 5.91415 11.2773 5.9094C11.0334 5.90702 10.8301 5.9041 10.6869 5.90066C10.6232 5.89913 10.5723 5.89751 10.5353 5.89584C10.5171 5.86637 10.493 5.82642 10.4636 5.777C10.399 5.66858 10.3106 5.51717 10.2063 5.33681C9.99765 4.97625 9.72629 4.5016 9.45715 4.02732C9.188 3.55304 8.92129 3.0795 8.72194 2.72116C8.62633 2.5493 8.54645 2.40435 8.48929 2.29865C8.6121 2.29134 8.78535 2.28474 9.00088 2.27917C9.46175 2.26724 10.1101 2.26012 10.858 2.26012H13.3702L14.4484 4.13502C14.7565 4.67079 15.033 5.16093 15.2301 5.5189ZM18.0045 2.47783L18.0491 2.33459L18.0045 2.47783C18.2827 2.56432 18.688 2.73589 18.8982 2.85519L18.9723 2.72472L18.8982 2.85519C19.1557 3.00123 19.487 3.26641 19.7953 3.56274C20.1039 3.85931 20.3771 4.17529 20.5242 4.41747C20.6814 4.67635 20.8517 5.07314 20.9678 5.41662C21.0257 5.5881 21.0682 5.74071 21.089 5.85198C21.0934 5.87552 21.0965 5.896 21.0987 5.91354C21.0808 5.91476 21.0605 5.91595 21.0377 5.91708C20.9362 5.92212 20.7953 5.92567 20.6273 5.92779C20.2916 5.93203 19.8528 5.93055 19.4147 5.9247C18.9766 5.91886 18.5405 5.90865 18.2101 5.89552C18.0447 5.88894 17.9073 5.88169 17.8099 5.874C17.7726 5.87106 17.7426 5.86816 17.7198 5.8654C17.7196 5.86499 17.7193 5.86458 17.7191 5.86416C17.7002 5.8339 17.6741 5.79082 17.6415 5.73632C17.5764 5.6275 17.4869 5.47546 17.3812 5.29437C17.1699 4.93232 16.8945 4.45557 16.6212 3.97937C16.3479 3.50317 16.0768 3.02783 15.8742 2.6686C15.782 2.50512 15.7041 2.36601 15.6467 2.26192C15.6688 2.26183 15.6923 2.26182 15.7172 2.26191C15.9072 2.26259 16.1705 2.26876 16.4611 2.28033L16.4611 2.28033C17.2451 2.31147 17.6372 2.3636 18.0045 2.47783ZM21.1832 5.90453C21.1833 5.90455 21.1823 5.90483 21.18 5.90529C21.1819 5.90474 21.1831 5.9045 21.1832 5.90453ZM3.27201 4.72473L3.27202 4.72471C3.40247 4.45965 3.65762 4.11277 3.95234 3.78573C4.24687 3.4589 4.56899 3.16511 4.82625 3.0005L4.82626 3.00049C5.03092 2.86951 5.32927 2.72168 5.60755 2.60594C5.74616 2.5483 5.87728 2.49967 5.98681 2.46555C6.07988 2.43656 6.14776 2.42118 6.18915 2.4162C6.19659 2.42272 6.20714 2.43295 6.22108 2.44843C6.26667 2.49911 6.33079 2.58598 6.42162 2.72525C6.60224 3.00221 6.87326 3.46255 7.29111 4.19399C7.58261 4.70426 7.8475 5.17448 8.0394 5.52091C8.1249 5.67528 8.19568 5.80465 8.24779 5.90187C8.2424 5.90205 8.23691 5.90222 8.23133 5.9024C8.07607 5.90726 7.85326 5.91128 7.58456 5.91444C7.0475 5.92076 6.33039 5.92364 5.61128 5.92317C4.89217 5.92271 4.1717 5.9189 3.62792 5.91188C3.35589 5.90837 3.12882 5.90406 2.96846 5.899C2.92709 5.89769 2.89053 5.89634 2.85902 5.89496C2.85965 5.89204 2.86031 5.88905 2.86099 5.88602C2.88144 5.79437 2.91659 5.66958 2.96091 5.53052C3.04976 5.2517 3.17069 4.93051 3.27201 4.72473ZM8.99404 10.5929L8.99401 10.593L8.71594 10.8478L8.66774 10.892L8.6673 10.9574L8.64757 13.8854C8.63827 15.2656 8.63524 16.0052 8.65144 16.4262C8.65952 16.6363 8.6726 16.7756 8.69446 16.8789C8.71772 16.9887 8.75064 17.0563 8.79134 17.1224C8.89927 17.2977 9.07974 17.4414 9.26994 17.5344C9.45908 17.627 9.67971 17.6799 9.87533 17.6475C9.9294 17.6386 10.0089 17.6066 10.0899 17.5706C10.1777 17.5316 10.2873 17.4786 10.4108 17.4158C10.6581 17.29 10.9658 17.1223 11.275 16.943C11.889 16.5868 12.8604 16.0258 13.4335 15.6963C14.0064 15.3669 14.5888 15.03 14.7272 14.948L14.7272 14.948C15.0031 14.7843 15.1941 14.5496 15.2766 14.2801C15.3592 14.0099 15.3294 13.7155 15.1825 13.4417L15.1825 13.4416C15.1421 13.3663 15.0776 13.2957 14.9825 13.2164C14.8871 13.1369 14.7526 13.0417 14.563 12.9194C14.1833 12.6746 13.5659 12.31 12.5591 11.7274C11.468 11.096 10.8467 10.7414 10.4603 10.5451C10.0734 10.3485 9.90037 10.2988 9.71173 10.2988C9.56502 10.2988 9.44503 10.3095 9.32748 10.3581C9.21187 10.4059 9.11202 10.4849 8.99404 10.5929ZM21.1942 12.3651C21.1935 12.4874 21.1928 12.6067 21.1922 12.723C21.1797 15.0249 21.1735 16.1644 21.1135 16.8481C21.0823 17.2038 21.037 17.4284 20.9712 17.6253C20.9108 17.8058 20.8323 17.9664 20.7225 18.1911C20.7107 18.2152 20.6986 18.24 20.686 18.2657C20.5278 18.5901 20.2104 18.9944 19.8416 19.3618C19.4727 19.7292 19.0677 20.0445 18.7438 20.2004C18.7099 20.2167 18.6775 20.2324 18.6463 20.2475C18.4269 20.3537 18.2698 20.4297 18.0857 20.4883C17.8782 20.5544 17.632 20.5994 17.2259 20.6291C16.4584 20.6852 15.1511 20.6851 12.5167 20.6849C12.3441 20.6849 12.1657 20.6849 11.9814 20.6849C11.8073 20.6849 11.6384 20.6849 11.4746 20.6849C8.81949 20.6851 7.50193 20.6852 6.72896 20.6285C6.32141 20.5986 6.07406 20.5535 5.86611 20.4872C5.68022 20.4279 5.52223 20.351 5.30101 20.2432C5.27162 20.2289 5.24111 20.2141 5.20927 20.1987C4.89197 20.0449 4.48801 19.7283 4.11903 19.3603C3.75005 18.9924 3.4322 18.5893 3.27735 18.2723C3.26595 18.2489 3.25487 18.2263 3.24408 18.2042C3.13308 17.9775 3.05388 17.8157 2.99307 17.6332C2.92732 17.4358 2.88202 17.2101 2.8507 16.8531C2.79028 16.1642 2.78377 15.0151 2.77061 12.6942C2.77 12.587 2.76938 12.4773 2.76874 12.3651L2.74332 7.91849H11.981H21.2186L21.1942 12.3651Z" fill="black" stroke="black" stroke-width="0.3"/>
</svg>
