<svg width="22" height="23" viewBox="0 0 22 23" fill="none" xmlns="http://www.w3.org/2000/svg">
<path id="Vector" d="M22 20.0558L15.7013 13.757C16.8657 11.9873 17.3321 9.84846 17.0101 7.7546C16.6882 5.66073 15.6007 3.76081 13.9584 2.42267C12.316 1.08454 10.2356 0.403375 8.11987 0.511069C6.00414 0.618763 4.00362 1.50765 2.50564 3.00564C1.00765 4.50362 0.118763 6.50414 0.0110691 8.61987C-0.096625 10.7356 0.584537 12.816 1.92267 14.4584C3.26081 16.1007 5.16073 17.1882 7.2546 17.5101C9.34846 17.8321 11.4873 17.3657 13.257 16.2013L19.5558 22.5L22 20.0558ZM2.44628 9.05682C2.44628 5.68746 5.18746 2.94628 8.55682 2.94628C11.9262 2.94628 14.6674 5.68746 14.6674 9.05682C14.6674 12.4262 11.9262 15.1674 8.55682 15.1674C5.18746 15.1674 2.44628 12.4262 2.44628 9.05682Z" fill="black"/>
</svg>
