<svg width="22" height="20" viewBox="0 0 22 20" fill="none" xmlns="http://www.w3.org/2000/svg">
<g id="Like=on">
<path id="Vector" d="M11 19.9911C10.2905 19.3559 9.4886 18.6951 8.6405 17.9921H8.6295C5.64301 15.5267 2.25831 12.737 0.763412 9.39426C0.272812 8.33036 0.0121126 7.17317 1.26253e-05 5.99821C-0.00161725 5.20081 0.154575 4.41113 0.459419 3.67552C0.764262 2.93991 1.21161 2.27321 1.7752 1.71456C2.33879 1.15592 3.00725 0.716586 3.74134 0.422367C4.47543 0.128148 5.26035 -0.0150281 6.05001 0.00124701C7.3487 0.00331796 8.61942 0.382255 9.7108 1.09292C10.1904 1.40717 10.6243 1.78729 11 2.22234C11.3784 1.78923 11.8118 1.40942 12.2903 1.09292C13.3812 0.382115 14.6516 0.00315554 15.95 0.00124701C16.7397 -0.0150281 17.5246 0.128148 18.2587 0.422367C18.9927 0.716586 19.6612 1.15592 20.2248 1.71456C20.7884 2.27321 21.2357 2.93991 21.5406 3.67552C21.8454 4.41113 22.0016 5.20081 22 5.99821C21.9888 7.17407 21.7285 8.33391 21.2366 9.39982C19.7417 12.7426 16.3581 15.5312 13.3716 17.9921L13.3606 18.001C12.5114 18.6995 11.7106 19.3603 11.0011 20L11 19.9911Z" fill="#EE5162"/>
</g>
</svg>
